<svg width="48" height="48" viewBox="0 0 48 48" fill="none" xmlns="http://www.w3.org/2000/svg">
<path d="M9.47449 4.97845C9.077 4.98466 8.69824 5.14839 8.42138 5.43367C8.14453 5.71894 7.99222 6.10245 7.99793 6.49994V7.99994H6.49793C6.29916 7.99713 6.10181 8.03385 5.91736 8.10797C5.73291 8.18209 5.56503 8.29213 5.42347 8.4317C5.28192 8.57127 5.16951 8.73757 5.09279 8.92096C5.01607 9.10435 4.97656 9.30115 4.97656 9.49994C4.97656 9.69873 5.01607 9.89553 5.09279 10.0789C5.16951 10.2623 5.28192 10.4286 5.42347 10.5682C5.56503 10.7077 5.73291 10.8178 5.91736 10.8919C6.10181 10.966 6.29916 11.0028 6.49793 10.9999H7.99793V12.4999C7.99512 12.6987 8.03184 12.8961 8.10596 13.0805C8.18008 13.265 8.29012 13.4328 8.42969 13.5744C8.56925 13.7159 8.73556 13.8284 8.91895 13.9051C9.10233 13.9818 9.29914 14.0213 9.49793 14.0213C9.69671 14.0213 9.89352 13.9818 10.0769 13.9051C10.2603 13.8284 10.4266 13.7159 10.5662 13.5744C10.7057 13.4328 10.8158 13.265 10.8899 13.0805C10.964 12.8961 11.0007 12.6987 10.9979 12.4999V10.9999H12.4979C12.6967 11.0028 12.894 10.966 13.0785 10.8919C13.2629 10.8178 13.4308 10.7077 13.5724 10.5682C13.7139 10.4286 13.8263 10.2623 13.9031 10.0789C13.9798 9.89553 14.0193 9.69873 14.0193 9.49994C14.0193 9.30115 13.9798 9.10435 13.9031 8.92096C13.8263 8.73757 13.7139 8.57127 13.5724 8.4317C13.4308 8.29213 13.2629 8.18209 13.0785 8.10797C12.894 8.03385 12.6967 7.99713 12.4979 7.99994H10.9979V6.49994C11.0008 6.29917 10.9634 6.09987 10.8878 5.91385C10.8122 5.72782 10.7001 5.55886 10.558 5.41698C10.4159 5.27509 10.2468 5.16317 10.0607 5.08784C9.8746 5.01251 9.67525 4.97532 9.47449 4.97845ZM33.4745 8.97845C33.077 8.98466 32.6982 9.14839 32.4214 9.43367C32.1445 9.71895 31.9922 10.1024 31.9979 10.4999V11.9999H30.4979C30.2992 11.9971 30.1018 12.0338 29.9174 12.108C29.7329 12.1821 29.565 12.2921 29.4235 12.4317C29.2819 12.5713 29.1695 12.7376 29.0928 12.921C29.0161 13.1043 28.9766 13.3012 28.9766 13.4999C28.9766 13.6987 29.0161 13.8955 29.0928 14.0789C29.1695 14.2623 29.2819 14.4286 29.4235 14.5682C29.565 14.7077 29.7329 14.8178 29.9174 14.8919C30.1018 14.966 30.2992 15.0028 30.4979 14.9999H31.9979V16.4999C31.9951 16.6987 32.0318 16.8961 32.106 17.0805C32.1801 17.265 32.2901 17.4328 32.4297 17.5744C32.5693 17.7159 32.7356 17.8284 32.9189 17.9051C33.1023 17.9818 33.2991 18.0213 33.4979 18.0213C33.6967 18.0213 33.8935 17.9818 34.0769 17.9051C34.2603 17.8284 34.4266 17.7159 34.5662 17.5744C34.7057 17.4328 34.8158 17.265 34.8899 17.0805C34.964 16.8961 35.0007 16.6987 34.9979 16.4999V14.9999H36.4979C36.6967 15.0028 36.894 14.966 37.0785 14.8919C37.2629 14.8178 37.4308 14.7077 37.5724 14.5682C37.7139 14.4286 37.8263 14.2623 37.9031 14.0789C37.9798 13.8955 38.0193 13.6987 38.0193 13.4999C38.0193 13.3012 37.9798 13.1043 37.9031 12.921C37.8263 12.7376 37.7139 12.5713 37.5724 12.4317C37.4308 12.2921 37.2629 12.1821 37.0785 12.108C36.894 12.0338 36.6967 11.9971 36.4979 11.9999H34.9979V10.4999C35.0008 10.2992 34.9634 10.0999 34.8878 9.91385C34.8122 9.72782 34.7001 9.55886 34.558 9.41698C34.4159 9.27509 34.2468 9.16317 34.0607 9.08784C33.8746 9.01251 33.6753 8.97532 33.4745 8.97845ZM17.5389 14.0488C16.3841 14.0488 15.2278 14.4849 14.3553 15.3574C12.6105 17.1022 12.6105 19.9777 14.3553 21.7226L16.6854 24.0507L16.6913 24.0585C16.786 24.1902 16.9014 24.3056 17.0331 24.4003L35.2675 42.6328C37.0126 44.3764 39.8856 44.3764 41.6307 42.6328C43.3756 40.8879 43.3756 38.0124 41.6307 36.2675L23.3534 17.9921C23.3508 17.9889 23.3482 17.9856 23.3456 17.9824C23.2513 17.8516 23.1365 17.7368 23.0057 17.6425L20.7206 15.3574C19.8482 14.4849 18.6938 14.0488 17.5389 14.0488ZM17.5389 17.0312C17.9196 17.0312 18.2999 17.1808 18.5995 17.4804L20.0057 18.8867L17.912 21.0351L16.4784 19.6015C15.8793 19.0024 15.8793 18.0795 16.4784 17.4804C16.778 17.1808 17.1583 17.0312 17.5389 17.0312ZM22.1268 21.0078L39.5096 38.3906C40.1088 38.9897 40.1088 39.9125 39.5096 40.5117C38.9112 41.1096 37.9875 41.1086 37.3885 40.5117H37.3866L20.0331 23.1562L22.1268 21.0078ZM13.4745 29.9785C13.077 29.9847 12.6982 30.1484 12.4214 30.4337C12.1445 30.7189 11.9922 31.1024 11.9979 31.4999V32.9999H10.4979C10.2992 32.9971 10.1018 33.0339 9.91736 33.108C9.73291 33.1821 9.56503 33.2921 9.42347 33.4317C9.28192 33.5713 9.16951 33.7376 9.09279 33.921C9.01607 34.1043 8.97656 34.3012 8.97656 34.4999C8.97656 34.6987 9.01607 34.8955 9.09279 35.0789C9.16951 35.2623 9.28192 35.4286 9.42347 35.5682C9.56503 35.7077 9.73291 35.8178 9.91736 35.8919C10.1018 35.966 10.2992 36.0028 10.4979 35.9999H11.9979V37.4999C11.9951 37.6987 12.0318 37.8961 12.106 38.0805C12.1801 38.265 12.2901 38.4328 12.4297 38.5744C12.5693 38.7159 12.7356 38.8283 12.9189 38.9051C13.1023 38.9818 13.2991 39.0213 13.4979 39.0213C13.6967 39.0213 13.8935 38.9818 14.0769 38.9051C14.2603 38.8283 14.4266 38.7159 14.5662 38.5744C14.7057 38.4328 14.8158 38.265 14.8899 38.0805C14.964 37.8961 15.0007 37.6987 14.9979 37.4999V35.9999H16.4979C16.6967 36.0028 16.894 35.966 17.0785 35.8919C17.2629 35.8178 17.4308 35.7077 17.5724 35.5682C17.7139 35.4286 17.8263 35.2623 17.9031 35.0789C17.9798 34.8955 18.0193 34.6987 18.0193 34.4999C18.0193 34.3012 17.9798 34.1043 17.9031 33.921C17.8263 33.7376 17.7139 33.5713 17.5724 33.4317C17.4308 33.2921 17.2629 33.1821 17.0785 33.108C16.894 33.0339 16.6967 32.9971 16.4979 32.9999H14.9979V31.4999C15.0008 31.2992 14.9634 31.0999 14.8878 30.9138C14.8122 30.7278 14.7001 30.5589 14.558 30.417C14.4159 30.2751 14.2468 30.1632 14.0607 30.0878C13.8746 30.0125 13.6752 29.9753 13.4745 29.9785Z" fill="#c2b27d"/>
</svg>
