<svg width="16" height="16" viewBox="0 0 16 16" fill="none" xmlns="http://www.w3.org/2000/svg">
<path d="M10.2695 1.02344L8.14844 3.14844C8.14453 3.14844 8.14453 3.14844 8.14453 3.14844C8.14453 3.14844 8.14453 3.14844 8.14062 3.14844C6.97266 4.34766 5.74609 5 3.5 5H3.08594L3.00781 5.40625C2.45703 8.23437 1.26562 13.1289 1.26562 13.1289L1.07031 13.9258L1.86719 13.7344C1.86719 13.7344 6.82812 12.5586 9.60156 11.9883L10 11.9062V11.5C10 9.20312 10.6719 8.0625 11.8555 6.85156L13.9805 4.72656L13.2695 4.02344L11.5 5.79297L9.20703 3.5L10.9805 1.72656L10.2695 1.02344ZM8.48828 4.19531L10.8125 6.51562C9.80859 7.67187 9.17188 9.07422 9.07812 11.082C6.96484 11.5234 4.62891 12.0703 3.33594 12.375L6.74219 8.96484C6.82812 8.98828 6.91406 9 7 9C7.55078 9 8 8.55078 8 8C8 7.44922 7.55078 7 7 7C6.44922 7 6 7.44922 6 8C6 8.08594 6.01172 8.17187 6.03516 8.25781L2.63281 11.6602C2.9375 10.3789 3.48047 8.07422 3.91406 5.92187C5.89062 5.83203 7.33203 5.22266 8.48828 4.19531Z" fill="#c2b27d"/>
</svg>
