<svg width="48" height="48" viewBox="0 0 48 48" fill="none" xmlns="http://www.w3.org/2000/svg">
<path d="M12 31C8.1 31 5 27.9 5 24C5 20.1 8.1 17 12 17C15.9 17 19 20.1 19 24C19 27.9 15.9 31 12 31ZM12 20C9.8 20 8 21.8 8 24C8 26.2 9.8 28 12 28C14.2 28 16 26.2 16 24C16 21.8 14.2 20 12 20Z" fill="#d63384"/>
<path d="M36 19C32.1 19 29 15.9 29 12C29 8.1 32.1 5 36 5C39.9 5 43 8.1 43 12C43 15.9 39.9 19 36 19ZM36 8C33.8 8 32 9.8 32 12C32 14.2 33.8 16 36 16C38.2 16 40 14.2 40 12C40 9.8 38.2 8 36 8Z" fill="#d63384"/>
<path d="M36 43C32.1 43 29 39.9 29 36C29 32.1 32.1 29 36 29C39.9 29 43 32.1 43 36C43 39.9 39.9 43 36 43ZM36 32C33.8 32 32 33.8 32 36C32 38.2 33.8 40 36 40C38.2 40 40 38.2 40 36C40 33.8 38.2 32 36 32Z" fill="#d63384"/>
<path d="M12 29.5C15.0376 29.5 17.5 27.0376 17.5 24C17.5 20.9624 15.0376 18.5 12 18.5C8.96243 18.5 6.5 20.9624 6.5 24C6.5 27.0376 8.96243 29.5 12 29.5Z" stroke="#d63384" stroke-width="3" stroke-miterlimit="10"/>
<path d="M36 17.5C39.0376 17.5 41.5 15.0376 41.5 12C41.5 8.96243 39.0376 6.5 36 6.5C32.9624 6.5 30.5 8.96243 30.5 12C30.5 15.0376 32.9624 17.5 36 17.5Z" stroke="#d63384" stroke-width="3" stroke-miterlimit="10"/>
<path d="M36 41.5C39.0376 41.5 41.5 39.0376 41.5 36C41.5 32.9624 39.0376 30.5 36 30.5C32.9624 30.5 30.5 32.9624 30.5 36C30.5 39.0376 32.9624 41.5 36 41.5Z" stroke="#d63384" stroke-width="3" stroke-miterlimit="10"/>
<path d="M16.8984 21.5L31.0984 14.5" stroke="#d63384" stroke-width="3" stroke-miterlimit="10"/>
<path d="M16.8984 26.5L31.0984 33.5" stroke="#d63384" stroke-width="3" stroke-miterlimit="10"/>
</svg>
